<svg xmlns="http://www.w3.org/2000/svg" viewBox="0 0 800 500" width="100%" height="100%">
  <rect width="800" height="500" rx="12" fill="#0f172a"/>
  
  <g stroke="#1e293b" stroke-width="1">
    <path d="M 0,100 L 800,100 M 0,200 L 800,200 M 0,300 L 800,300 M 0,400 L 800,400" />
    <path d="M 100,0 L 100,500 M 200,0 L 200,500 M 300,0 L 300,500 M 400,0 L 400,500 M 500,0 L 500,500 M 600,0 L 600,500 M 700,0 L 700,500" />
  </g>

  <g stroke="#38bdf8" stroke-width="3" fill="none" marker-end="url(#arrow)">
    <path d="M 400,95 L 400,140" />
    <path d="M 400,215 L 400,260" />
    <path d="M 230,180 L 140,180 L 140,400 L 210,400" />
    <path d="M 400,335 L 400,380" />
  </g>

  <defs>
    <marker id="arrow" viewBox="0 0 10 10" refX="6" refY="5" markerWidth="6" markerHeight="6" orient="auto-start-reverse">
      <path d="M 0 1 L 10 5 L 0 9 z" fill="#38bdf8"/>
    </marker>
  </defs>

  <text x="400" y="40" font-family="Segoe UI, sans-serif" font-size="22" font-weight="bold" fill="#f8fafc" text-anchor="middle">InfosecLens Hybrid Security Pipeline</text>

  <rect x="220" y="60" width="360" height="40" rx="6" fill="#1e293b" stroke="#475569" stroke-width="2"/>
  <text x="400" y="85" font-family="Segoe UI, sans-serif" font-size="14" font-weight="600" fill="#f1f5f9" text-anchor="middle">Unstructured Data Ingestion (PDF, TXT, CSV)</text>

  <rect x="220" y="145" width="360" height="70" rx="8" fill="#0284c7" stroke="#38bdf8" stroke-width="2"/>
  <text x="400" y="175" font-family="Segoe UI, sans-serif" font-size="15" font-weight="bold" fill="#ffffff" text-anchor="middle">Tier 1: Deterministic Filter Layer</text>
  <text x="400" y="195" font-family="Segoe UI, sans-serif" font-size="12" fill="#e0f2fe" text-anchor="middle">In-Memory Regex Scanning &amp; In-Place Data Masking</text>

  <rect x="220" y="385" width="160" height="55" rx="6" fill="#1e293b" stroke="#475569" stroke-width="1.5"/>
  <text x="300" y="410" font-family="Segoe UI, sans-serif" font-size="13" font-weight="bold" fill="#94a3b8" text-anchor="middle">Sidebar Analytics</text>
  <text x="300" y="428" font-family="Segoe UI, sans-serif" font-size="11" fill="#64748b" text-anchor="middle">Real-time PII Counters</text>

  <rect x="220" y="265" width="360" height="70" rx="8" fill="#4f46e5" stroke="#818cf8" stroke-width="2"/>
  <text x="400" y="295" font-family="Segoe UI, sans-serif" font-size="15" font-weight="bold" fill="#ffffff" text-anchor="middle">Tier 2: Probabilistic AI Reasoning Layer</text>
  <text x="400" y="315" font-family="Segoe UI, sans-serif" font-size="12" fill="#e0e7ff" text-anchor="middle">Contextual Analysis via gemini-2.5-flash (DPDP / GDPR)</text>

  <rect x="420" y="385" width="160" height="55" rx="6" fill="#059669" stroke="#34d399" stroke-width="1.5"/>
  <text x="500" y="410" font-family="Segoe UI, sans-serif" font-size="13" font-weight="bold" fill="#ffffff" text-anchor="middle">Tier 3: Secure RAG</text>
  <text x="500" y="428" font-family="Segoe UI, sans-serif" font-size="11" fill="#d1fae5" text-anchor="middle">Interactive QA Layer</text>

</svg>
